<?xml version="1.0" encoding="UTF-8" standalone="no"?>
<!-- Created with Inkscape (http://www.inkscape.org/) -->

<svg
   width="13.229166mm"
   height="13.229167mm"
   viewBox="0 0 13.229166 13.229167"
   version="1.1"
   id="svg18576"
   sodipodi:docname="en.svg"
   inkscape:version="1.2.1 (9c6d41e410, 2022-07-14)"
   xmlns:inkscape="http://www.inkscape.org/namespaces/inkscape"
   xmlns:sodipodi="http://sodipodi.sourceforge.net/DTD/sodipodi-0.dtd"
   xmlns="http://www.w3.org/2000/svg"
   xmlns:svg="http://www.w3.org/2000/svg">
  <sodipodi:namedview
     id="namedview17934"
     pagecolor="#ffffff"
     bordercolor="#000000"
     borderopacity="0.25"
     inkscape:showpageshadow="2"
     inkscape:pageopacity="0.0"
     inkscape:pagecheckerboard="0"
     inkscape:deskcolor="#d1d1d1"
     inkscape:document-units="mm"
     showgrid="false"
     inkscape:zoom="8.2999998"
     inkscape:cx="22.108434"
     inkscape:cy="28.012049"
     inkscape:window-width="958"
     inkscape:window-height="981"
     inkscape:window-x="952"
     inkscape:window-y="0"
     inkscape:window-maximized="0"
     inkscape:current-layer="layer1" />
  <defs
     id="defs18573">
    <clipPath
       clipPathUnits="userSpaceOnUse"
       id="clipPath40660">
      <path
         id="path40662"
         style="fill:#ff2a2a;fill-opacity:0.1;stroke:#464655;stroke-width:0;stroke-dasharray:none;paint-order:markers stroke fill"
         d="M 9.1763784,13.229166 H 6.6145836 1.4909945 c -0.413005,0 -0.785753,-0.159871 -1.05525099,-0.419032 C 0.1662465,12.550971 5.0000001e-7,12.192518 5.0000001e-7,11.795351 V 6.6145833 4.0241985 m 0,0 V 1.4338145 C 5.0000001e-7,1.0366485 0.1662465,0.6781945 0.43574351,0.4190325 0.7052415,0.1598705 1.0779895,5.0000001e-7 1.4909945,5.0000001e-7 h 2.5617951 2.561794 5.1235894 c 0.413006,0 0.785752,0.15986999999999 1.055249,0.41903199999999 0.269498,0.259162 0.435744,0.617616 0.435744,1.014782 v 5.1807688 2.5903841 2.5903836 c 0,0.397167 -0.166246,0.75562 -0.435744,1.014783 -0.269497,0.259161 -0.642243,0.419032 -1.055249,0.419032 H 9.1763784" />
    </clipPath>
  </defs>
  <g
     id="layer1">
    <g
       id="g40657"
       clip-path="url(#clipPath40660)">
      <path
         id="path34641-0"
         style="fill:#d52941;fill-opacity:0.86274511;stroke:#880ccf;stroke-width:1.32292;stroke-dasharray:none;stroke-opacity:0.937255;paint-order:markers stroke fill"
         d="M 1.4916817,9.818384e-4 C 0.71972003,-0.03012816 -0.07469537,0.68320784 0.02721913,1.4615168 1.7373144,3.1792248 3.4464995,4.8978378 5.1565742,6.6155658 3.4376968,8.3421288 1.7197291,10.069599 8.1663341e-4,11.796128 -0.02892837,12.578482 0.75957453,13.313284 1.5180795,13.20363 3.217343,11.496451 4.9163647,9.7890318 6.6153999,8.0816258 c 1.7079915,1.71609 3.4156201,3.4325402 5.1237181,5.1485232 0.771966,0.0311 1.566366,-0.682216 1.46447,-1.460543 C 11.4938,10.051593 9.7840134,8.3335788 8.0742254,6.6155658 9.7931034,4.8890018 11.51107,3.1615318 13.229983,1.4350028 13.259733,0.65265284 12.471218,-0.08216116 11.712725,0.02750584 10.01342,1.7346438 8.3145944,3.4422568 6.6153999,5.1495048 4.9074938,3.4333308 3.1995878,1.7171568 1.4916817,9.818384e-4 Z" />
      <path
         id="rect19704-8-8"
         style="fill:#fff8eb;fill-opacity:0.98039216;stroke:#c74440;stroke-width:0;stroke-dasharray:none;stroke-opacity:0.937255;paint-order:markers stroke fill"
         d="M 1.4908651,0 6.6145833,5.1485229 C 8.3137756,3.4412765 10.012643,1.7334915 11.711947,0.02635498 11.826441,0.00980094 11.941617,0.01285031 12.054561,0.03203939 11.952658,0.01102611 11.84692,0 11.738302,0 H 6.6145833 4.0529826 Z M 0.78754883,0.16846517 C 0.65754282,0.23519793 0.53887402,0.31981352 0.43563232,0.41909587 0.38155427,0.47110001 0.33205832,0.52701674 0.2868042,0.58652751 0.41976948,0.41570849 0.59334184,0.27124023 0.78754883,0.16846517 Z M 12.657109,0.30385742 c 0.166362,0.12824337 0.307911,0.29208497 0.40876,0.47593994 -0.07114,-0.13379556 -0.16299,-0.25555063 -0.272335,-0.36070149 -0.04277,-0.0411352 -0.0887,-0.0793485 -0.136425,-0.11523845 z M 0.0506429,1.0629842 C 0.01799174,1.1812934 0,1.3055626 0,1.434021 V 4.0240438 6.6145833 11.795146 C 1.7189108,10.068618 3.436882,8.3411455 5.1557576,6.6145833 3.4456847,4.8968575 1.7364486,3.1780815 0.02635498,1.460376 0.008575,1.3245922 0.0187397,1.1912047 0.0506429,1.0629842 Z M 13.229167,1.434021 c -1.718912,1.7265265 -3.436882,3.4540004 -5.155758,5.1805623 1.709786,1.7180119 3.419616,3.4361957 5.129403,5.1542077 0.01778,0.135786 0.0076,0.26917 -0.02429,0.397391 0.03265,-0.118309 0.05064,-0.242578 0.05064,-0.371036 V 9.2051229 6.6145833 Z M 6.6145833,8.0806437 C 4.9155498,9.7880482 3.2164819,11.495634 1.5172201,13.202812 c -0.1144959,0.01655 -0.2296694,0.01351 -0.3426148,-0.0057 0.1019035,0.02101 0.2076417,0.03204 0.3162598,0.03204 H 6.6145833 9.1761841 11.738302 C 10.030205,11.513185 8.3225729,9.7967318 6.6145833,8.0806437 Z M 0.16329753,12.449369 c 0.0711422,0.133796 0.16299054,0.255551 0.27233479,0.360702 0.0427757,0.04113 0.0886995,0.07935 0.13642579,0.115238 -0.16636179,-0.128243 -0.30791207,-0.292085 -0.40876058,-0.47594 z m 12.77906447,0.19327 c -0.132965,0.170819 -0.306538,0.315288 -0.500744,0.418062 0.130005,-0.06673 0.248675,-0.151348 0.351916,-0.25063 0.05408,-0.05201 0.103574,-0.107921 0.148828,-0.167432 z" />
    </g>
  </g>
</svg>
