<?xml version="1.0" encoding="UTF-8" standalone="no"?>
<!-- Created with Inkscape (http://www.inkscape.org/) -->

<svg
   width="13.229167mm"
   height="13.229167mm"
   viewBox="0 0 13.229167 13.229167"
   version="1.1"
   id="svg18576"
   inkscape:export-filename="ie.svg"
   inkscape:export-xdpi="96"
   inkscape:export-ydpi="96"
   sodipodi:docname="ie.svg"
   xml:space="preserve"
   inkscape:version="1.2.1 (9c6d41e410, 2022-07-14)"
   xmlns:inkscape="http://www.inkscape.org/namespaces/inkscape"
   xmlns:sodipodi="http://sodipodi.sourceforge.net/DTD/sodipodi-0.dtd"
   xmlns="http://www.w3.org/2000/svg"
   xmlns:svg="http://www.w3.org/2000/svg"><sodipodi:namedview
     id="namedview18578"
     pagecolor="#ffffff"
     bordercolor="#000000"
     borderopacity="0.25"
     inkscape:showpageshadow="2"
     inkscape:pageopacity="0.0"
     inkscape:pagecheckerboard="0"
     inkscape:deskcolor="#d1d1d1"
     inkscape:document-units="mm"
     showgrid="false"
     inkscape:zoom="8"
     inkscape:cx="23.9375"
     inkscape:cy="21.5625"
     inkscape:window-width="958"
     inkscape:window-height="981"
     inkscape:window-x="952"
     inkscape:window-y="0"
     inkscape:window-maximized="0"
     inkscape:current-layer="g27451" /><defs
     id="defs18573"><clipPath
       clipPathUnits="userSpaceOnUse"
       id="clipPath31210"><path
         id="path31212"
         style="fill:#ff2a2a;fill-opacity:0.1;stroke:#464655;stroke-width:0;stroke-dasharray:none;paint-order:markers stroke fill"
         d="M 33.953185,48.117218 H 25.000002 7.0936377 c -1.4434072,0 -2.7461221,-0.55873 -3.6879848,-1.464469 C 2.4637904,45.747004 1.8827797,44.494251 1.8827797,43.106197 V 24.999998 15.946897 m 0,0 V 6.8937966 c 0,-1.3880514 0.5810107,-2.6408058 1.5228732,-3.5465471 C 4.3475156,2.4415081 5.6502305,1.8827797 7.0936377,1.8827797 H 16.04682 25.000002 42.90637 c 1.44341,0 2.746114,0.5587284 3.687976,1.4644698 0.941865,0.9057413 1.522872,2.1584957 1.522872,3.5465471 v 18.1062014 9.0531 9.053099 c 0,1.388054 -0.581007,2.640807 -1.522872,3.546552 -0.941862,0.905739 -2.244566,1.464469 -3.687976,1.464469 h -8.953185"
         sodipodi:nodetypes="ccssccccsssccssscssssc" /></clipPath></defs><g
     inkscape:label="Layer 1"
     inkscape:groupmode="layer"
     id="layer1"><g
       id="g27451"
       inkscape:label="ie"
       transform="matrix(0.28613228,0,0,0.28613228,-0.53872353,-0.53872353)"
       style="stroke:#b32aed;stroke-opacity:0.992188"
       clip-path="url(#clipPath31210)"><path
         id="path21251"
         style="stroke:#880ccf;stroke-opacity:1;fill:#fdb833;fill-opacity:0.9254902;stroke-width:4.62344;stroke-dasharray:none;paint-order:markers stroke fill"
         inkscape:label="path21251"
         d="m 7.0931829,1.8827779 c -1.4434062,0 -2.7460576,0.5589521 -3.6879192,1.4646927 C 2.4634019,4.2532112 1.8827779,5.5064686 1.8827779,6.8945193 V 15.946356 25 43.10548 c 0,1.388049 0.580624,2.641307 1.5224858,3.547048 0.9418616,0.905741 2.244513,1.464693 3.6879192,1.464693 H 25 h 8.952505 8.954311 c 1.443405,0 2.746058,-0.558952 3.687919,-1.464693 0.941861,-0.905741 1.522486,-2.158999 1.522486,-3.547048 V 34.053643 25 6.8945193 c 0,-1.3880507 -0.580625,-2.6413081 -1.522486,-3.5470487 C 45.652874,2.44173 44.350221,1.8827779 42.906816,1.8827779 H 25 16.047494 Z" /><path
         id="path515"
         style="fill:none;stroke:#0f0f10;stroke-width:2.80655;stroke-opacity:0.992157"
         d="m 15.186363,17.388084 q 11.913415,-3.526217 9.817536,7.603404 -2.095877,11.129621 9.817538,7.603403 m -0.992785,1.212138 a 12.480084,12.467057 0 0 1 -17.649505,0 12.480084,12.467057 0 0 1 0,-17.631082 12.480084,12.467057 0 0 1 17.649505,0 12.480084,12.467057 0 0 1 0,17.631082 z" /></g></g></svg>
