<?xml version="1.0" encoding="UTF-8" standalone="no"?>
<!-- Created with Inkscape (http://www.inkscape.org/) -->

<svg
   width="13.229167mm"
   height="13.229167mm"
   viewBox="0 0 13.229167 13.229167"
   version="1.1"
   id="svg18576"
   inkscape:export-filename="eo.svg"
   inkscape:export-xdpi="96"
   inkscape:export-ydpi="96"
   sodipodi:docname="tk.svg"
   xml:space="preserve"
   inkscape:version="1.2.1 (9c6d41e410, 2022-07-14)"
   xmlns:inkscape="http://www.inkscape.org/namespaces/inkscape"
   xmlns:sodipodi="http://sodipodi.sourceforge.net/DTD/sodipodi-0.dtd"
   xmlns="http://www.w3.org/2000/svg"
   xmlns:svg="http://www.w3.org/2000/svg"><sodipodi:namedview
     id="namedview18578"
     pagecolor="#ffffff"
     bordercolor="#000000"
     borderopacity="0.25"
     inkscape:showpageshadow="2"
     inkscape:pageopacity="0.0"
     inkscape:pagecheckerboard="0"
     inkscape:deskcolor="#d1d1d1"
     inkscape:document-units="mm"
     showgrid="false"
     inkscape:zoom="8"
     inkscape:cx="30.140427"
     inkscape:cy="39.59798"
     inkscape:window-width="958"
     inkscape:window-height="981"
     inkscape:window-x="952"
     inkscape:window-y="0"
     inkscape:window-maximized="0"
     inkscape:current-layer="g27451"
     inkscape:rotation="45" /><defs
     id="defs18573"><clipPath
       clipPathUnits="userSpaceOnUse"
       id="clipPath1341"><path
         id="path1343"
         style="fill:#f6ae2d;fill-opacity:0.937255;stroke:#880ccf;stroke-width:4.62345;stroke-dasharray:none;stroke-opacity:1;paint-order:markers stroke fill"
         inkscape:label="path21251"
         d="m 7.0931886,1.8827837 c -1.4434062,0 -2.7460576,0.5589519 -3.6879192,1.4646928 C 2.4634078,4.253217 1.8827837,5.5064732 1.8827837,6.8945235 v 9.0518385 9.053644 18.105478 c 0,1.388047 0.5806241,2.641306 1.5224857,3.547048 0.9418616,0.905739 2.244513,1.464694 3.6879192,1.464694 h 17.9068154 8.952506 8.954311 c 1.443405,0 2.746059,-0.558955 3.68792,-1.464694 0.941862,-0.905742 1.522485,-2.159001 1.522485,-3.547048 V 34.053648 25.000006 6.8945235 c 0,-1.3880503 -0.580623,-2.6413065 -1.522485,-3.547047 C 45.65288,2.4417356 44.350226,1.8827837 42.906821,1.8827837 H 25.000004 16.047499 Z" /></clipPath><clipPath
       clipPathUnits="userSpaceOnUse"
       id="clipPath2154"><g
         inkscape:label="Clip"
         id="use2156"><path
           sodipodi:type="star"
           style="fill:#6cae75;fill-opacity:0.937255;stroke:#b32aed;stroke-width:1.32292;stroke-dasharray:none;stroke-opacity:0.992157;paint-order:markers stroke fill"
           id="path3977"
           inkscape:flatsided="false"
           sodipodi:sides="5"
           sodipodi:cx="2.4143229"
           sodipodi:cy="1.8190104"
           sodipodi:r1="5.9259615"
           sodipodi:r2="2.3703847"
           sodipodi:arg1="0.97195823"
           sodipodi:arg2="1.6002768"
           inkscape:rounded="0"
           inkscape:randomized="0"
           d="M 5.7546874,6.7138019 2.3444529,4.1883651 -1.2086711,6.5084596 0.13934161,2.484731 -3.1651751,-0.17754216 1.0781771,-0.13890638 2.5889975,-4.1043762 3.8635206,-0.05676934 8.1017757,0.15470869 4.6461221,2.6176315 Z"
           inkscape:transform-center-x="0.0089007641"
           inkscape:transform-center-y="-0.056601965"
           transform="matrix(0.87318953,-0.03049247,0.03049247,0.87318953,11.283059,11.941164)" /></g></clipPath><clipPath
       clipPathUnits="userSpaceOnUse"
       id="clipPath21831"><path
         fill="#ffff63"
         stroke="none"
         d="M 442.99641,539.00275 C 495.054,521.15321 537.64303,481.95246 569.5296,437.98127 599.77586,393.83334 602.41635,337.35567 598.66807,285.63867 596.71799,247.57826 578.43936,213.0069 554.1612,184.38118 522.69135,145.4212 486.09652,107.90319 438.07745,90.314105 355.14895,54.125255 253.41361,44.949643 173.31124,93.560411 109.30483,132.90621 68.18046,205.7514 66.136044,280.73742 c -3.248905,55.46743 -2.705525,118.22922 37.759896,161.43389 83.6182,91.61713 219.74718,130.07963 339.10047,96.83144 z"
         id="path21833"
         style="fill:#f6ae2d;fill-opacity:0.937255;stroke:#880ccf;stroke-width:54.1538;stroke-dasharray:none;stroke-opacity:1;paint-order:markers stroke fill" /></clipPath></defs><g
     inkscape:label="Layer 1"
     inkscape:groupmode="layer"
     id="layer1"><g
       id="g27451"
       inkscape:label="ie"
       transform="matrix(0.28613228,0,0,0.28613228,-0.53872353,-0.53872353)"
       style="stroke:#b32aed;stroke-opacity:0.992188"
       clip-path="url(#clipPath1341)"><path
         id="path21251"
         style="fill:#fff8eb;fill-opacity:0.93725491;stroke:#880ccf;stroke-width:4.62344;stroke-dasharray:none;stroke-opacity:1;paint-order:markers stroke fill"
         d="M 1.8827779,25.001456 V 43.10548 c 0,1.388049 0.580624,2.641307 1.5224858,3.547048 0.9418616,0.905741 2.244513,1.464693 3.6879192,1.464693 H 25 h 8.952505 8.954311 c 1.443405,0 2.746058,-0.558952 3.687919,-1.464693 0.941861,-0.905741 1.522486,-2.158999 1.522486,-3.547048 V 34.053643 25 6.8945193 c 0,-1.3880507 -0.580625,-2.6413081 -1.522486,-3.5470487 C 45.652874,2.44173 44.350221,1.8827779 42.906816,1.8827779 h -17.90536 m -0.0015,0 H 16.047494 7.0931829 c -1.4434062,0 -2.7460576,0.5589521 -3.6879192,1.4646927 C 2.4634019,4.2532112 1.8827779,5.5064686 1.8827779,6.8945193 V 15.946356 25"
         transform="matrix(0,0.99999997,0.99999997,0,-2.5119501e-7,7.6596275e-7)" /><g
         transform="matrix(0.02414801,0.02414801,0.02414801,-0.02414801,5.8648063,29.077586)"
         fill="#000099"
         stroke="none"
         id="g4043"><path
           id="path4031"
           style="fill:#05668d;fill-opacity:0.95686275"
           d="m 319.75994,849.19921 c -4.875,-0.39062 -10.76924,-4.21154 -17.76923,-11.21154 -13.99999,-13.99998 -16.01441,-125.96637 -3.01442,-146.96635 4.99999,-7.99999 16.01442,-11.03846 25.01441,-8.03846 11.99999,5 16.02404,21.02409 16.02404,71.02404 0,66.74993 -5.62982,96.36419 -20.2548,95.19231 z m 246.38935,-27.71154 c -14.1992,-1.11328 -32.03846,-17.73561 -45.16345,-46.48558 -26.99997,-56.99994 -31.99516,-108.01443 -9.99518,-113.01442 17.99998,-3 83.99035,122.00483 74.99036,144.00481 -4.125,11.24999 -11.3122,16.16316 -19.83173,15.49519 z M 58.985966,810.01171 c -10.999989,0 -21.961535,-6.00962 -24.961532,-13.00962 -7.999992,-21.99997 58.995189,-158 75.995176,-154 37.99996,6.99999 -11.033684,167.00962 -51.033644,167.00962 z" /><path
           fill="#000099"
           stroke="none"
           d="M 254,590 C 204,583 126,538 79,490 -19,390 14,144 136,67 199,27 243,17 336,23 c 125,7 212,62 275,172 53,92 32,220 -51,317 -62,71 -170,99 -306,78 z"
           id="path4037"
           style="fill:#05668d;fill-opacity:0.95686275" /><g
           id="g20280"
           clip-path="url(#clipPath21831)"
           style="stroke:#880ccf;stroke-opacity:1;stroke-width:54.15384267;stroke-dasharray:none;fill:#fcd581;fill-opacity:0.93725491"
           inkscape:label="g20280"
           transform="translate(-1.2438423e-5,-3.6342721e-5)"><path
             fill="#ffff63"
             stroke="none"
             d="M 443,539 C 495.05759,521.15047 537.64663,481.9497 569.5332,437.97852 599.77946,393.83059 602.41996,337.35291 598.67166,285.63593 596.72147,247.57551 578.44297,213.00416 554.16479,184.37842 522.69494,145.41845 486.10011,107.90045 438.08105,90.311348 355.15255,54.122491 253.41722,44.946875 173.31485,93.557648 109.30843,132.90347 68.184063,205.74866 66.139637,280.73466 62.890743,336.20211 63.434191,398.96389 103.89954,442.16855 187.51774,533.7857 323.64672,572.24819 443,539 Z"
             id="path4039"
             style="fill:#fdb833;fill-opacity:0.93725491;stroke:#880ccf;stroke-width:54.15384267;stroke-dasharray:none;stroke-opacity:1;paint-order:markers stroke fill" /></g><path
           fill="#000099"
           stroke="none"
           d="m 462,367 c -5,-7 -15,-28 -21,-48 -21,-67 -100,-120 -144,-98 -30,15 -65,56 -88,102 -21,40 -51,48 -57,14 -5,-26 53,-111 96,-141 89,-62 204,-7 252,119 15,40 -15,81 -38,52 z"
           id="path4041"
           style="fill:#05668d;fill-opacity:0.95686275" /></g></g></g></svg>
