<?xml version="1.0" encoding="UTF-8" standalone="no"?>
<!-- Created with Inkscape (http://www.inkscape.org/) -->

<svg
   width="13.229167mm"
   height="13.229167mm"
   viewBox="0 0 13.229167 13.229167"
   version="1.1"
   id="svg18576"
   inkscape:export-filename="eo.svg"
   inkscape:export-xdpi="96"
   inkscape:export-ydpi="96"
   sodipodi:docname="eo.svg"
   xml:space="preserve"
   inkscape:version="1.2.1 (9c6d41e410, 2022-07-14)"
   xmlns:inkscape="http://www.inkscape.org/namespaces/inkscape"
   xmlns:sodipodi="http://sodipodi.sourceforge.net/DTD/sodipodi-0.dtd"
   xmlns="http://www.w3.org/2000/svg"
   xmlns:svg="http://www.w3.org/2000/svg"><sodipodi:namedview
     id="namedview18578"
     pagecolor="#ffffff"
     bordercolor="#000000"
     borderopacity="0.25"
     inkscape:showpageshadow="2"
     inkscape:pageopacity="0.0"
     inkscape:pagecheckerboard="0"
     inkscape:deskcolor="#d1d1d1"
     inkscape:document-units="mm"
     showgrid="false"
     inkscape:zoom="3.9399999"
     inkscape:cx="40.380464"
     inkscape:cy="14.357498"
     inkscape:window-width="958"
     inkscape:window-height="981"
     inkscape:window-x="979"
     inkscape:window-y="33"
     inkscape:window-maximized="0"
     inkscape:current-layer="g27451"
     inkscape:rotation="45" /><defs
     id="defs18573"><clipPath
       clipPathUnits="userSpaceOnUse"
       id="clipPath1341"><path
         id="path1343"
         style="fill:#f6ae2d;fill-opacity:0.937255;stroke:#880ccf;stroke-width:4.62345;stroke-dasharray:none;stroke-opacity:1;paint-order:markers stroke fill"
         inkscape:label="path21251"
         d="m 7.0931886,1.8827837 c -1.4434062,0 -2.7460576,0.5589519 -3.6879192,1.4646928 C 2.4634078,4.253217 1.8827837,5.5064732 1.8827837,6.8945235 v 9.0518385 9.053644 18.105478 c 0,1.388047 0.5806241,2.641306 1.5224857,3.547048 0.9418616,0.905739 2.244513,1.464694 3.6879192,1.464694 h 17.9068154 8.952506 8.954311 c 1.443405,0 2.746059,-0.558955 3.68792,-1.464694 0.941862,-0.905742 1.522485,-2.159001 1.522485,-3.547048 V 34.053648 25.000006 6.8945235 c 0,-1.3880503 -0.580623,-2.6413065 -1.522485,-3.547047 C 45.65288,2.4417356 44.350226,1.8827837 42.906821,1.8827837 H 25.000004 16.047499 Z" /></clipPath><clipPath
       clipPathUnits="userSpaceOnUse"
       id="clipPath2680"><path
         style="fill:#6cae75;fill-opacity:0.937255;stroke:#880ccf;stroke-width:4.62344;stroke-dasharray:none;stroke-opacity:1;paint-order:markers stroke fill"
         d="m 25.003053,1.8843776 h 18.104023 c 1.388048,0 2.641306,0.580624 3.547047,1.5224859 0.905741,0.941861 1.464693,2.244513 1.464693,3.6879186 v 17.9068169 8.952503 8.954311 c 0,1.443405 -0.558952,2.746059 -1.464693,3.687919 -0.905741,0.941861 -2.158999,1.522486 -3.547047,1.522486 H 34.05524 25.001598 6.8961175 c -1.388051,0 -2.6413076,-0.580625 -3.5470482,-1.522486 C 2.4433288,45.654472 1.8843767,44.351818 1.8843767,42.908413 V 25.003054 H 25.003053 Z"
         id="path2682"
         sodipodi:nodetypes="csssccsssccsssccc" /></clipPath><clipPath
       clipPathUnits="userSpaceOnUse"
       id="clipPath2708"><path
         style="fill:#f4f7f5;fill-opacity:0.937255;stroke:#880ccf;stroke-width:4.62344;stroke-dasharray:none;stroke-opacity:1;paint-order:markers stroke fill"
         d="M 1.8843767,25.001599 V 16.049093 7.0947824 c 0,-1.4434061 0.5589519,-2.7460575 1.4646919,-3.6879191 C 4.2548095,2.4650016 5.5080665,1.8843776 6.8961175,1.8843776 h 9.0518365 9.053644 l 0.0015,23.1186764 z"
         id="path2710"
         sodipodi:nodetypes="ccssscccc" /></clipPath><clipPath
       clipPathUnits="userSpaceOnUse"
       id="clipPath2762"><path
         sodipodi:type="star"
         style="fill:#6cae75;fill-opacity:0.937255;stroke:#b32aed;stroke-width:1.32292;stroke-dasharray:none;stroke-opacity:0.992157;paint-order:markers stroke fill"
         id="path2764"
         inkscape:flatsided="false"
         sodipodi:sides="5"
         sodipodi:cx="2.4143229"
         sodipodi:cy="1.8190104"
         sodipodi:r1="5.9259615"
         sodipodi:r2="2.3703847"
         sodipodi:arg1="0.97195823"
         sodipodi:arg2="1.6002768"
         inkscape:rounded="0"
         inkscape:randomized="0"
         d="M 5.7546874,6.7138019 2.3444529,4.1883651 -1.2086711,6.5084596 0.13934161,2.484731 -3.1651751,-0.17754216 1.0781771,-0.13890638 2.5889975,-4.1043762 3.8635206,-0.05676934 8.1017757,0.15470869 4.6461221,2.6176315 Z"
         inkscape:transform-center-x="0.0089007641"
         inkscape:transform-center-y="-0.056601965"
         transform="matrix(0.87318954,-0.03049248,0.03049248,0.87318954,11.283059,11.941164)" /></clipPath></defs><g
     inkscape:label="Layer 1"
     inkscape:groupmode="layer"
     id="layer1"><g
       id="g27451"
       inkscape:label="ie"
       transform="matrix(0.28613228,0,0,0.28613228,-0.53872353,-0.53872353)"
       style="stroke:#b32aed;stroke-opacity:0.992188"
       clip-path="url(#clipPath1341)"><g
         id="g2074"
         clip-path="url(#clipPath2680)"
         transform="matrix(-1,0,0,1,50.003194,-1.3708901e-6)"><path
           style="fill:#6cae75;fill-opacity:0.9254902;stroke:#880ccf;stroke-width:4.62344;stroke-dasharray:none;stroke-opacity:1;paint-order:markers stroke fill"
           d="M 1.8827779,25.001456 V 43.10548 c 0,1.388049 0.580624,2.641307 1.5224858,3.547048 0.9418616,0.905741 2.244513,1.464693 3.6879192,1.464693 H 25 h 8.952505 8.954311 c 1.443405,0 2.746058,-0.558952 3.687919,-1.464693 0.941861,-0.905741 1.522486,-2.158999 1.522486,-3.547048 V 34.053643 25 6.8945193 c 0,-1.3880507 -0.580625,-2.6413081 -1.522486,-3.5470487 C 45.652874,2.44173 44.350221,1.8827779 42.906816,1.8827779 H 25.001456 V 25.001456 Z"
           id="path21251"
           sodipodi:nodetypes="csssccsssccsssccc" /></g><g
         id="g2083"
         clip-path="url(#clipPath2708)"
         transform="matrix(-1,0,0,1,50.003194,-1.3708901e-6)"><path
           style="fill:#fff8eb;fill-opacity:0.93725491;stroke:#880ccf;stroke-width:4.62344;stroke-dasharray:none;stroke-opacity:1;paint-order:markers stroke fill"
           d="M 25,1.8827779 H 16.047494 7.0931829 c -1.4434062,0 -2.7460576,0.5589521 -3.6879192,1.4646927 C 2.4634019,4.2532112 1.8827779,5.5064686 1.8827779,6.8945193 V 15.946356 25 l 23.1186781,0.0015 z"
           id="path581"
           sodipodi:nodetypes="ccssscccc" /></g><g
         id="g2152"
         clip-path="url(#clipPath2762)"
         transform="matrix(-3.1790957e-8,-1.5,-1.5,3.1790957e-8,56.531565,33.913138)"><path
           sodipodi:type="star"
           style="fill:#6cae75;fill-opacity:0.9254902;stroke:#b32aed;stroke-width:1.32292;stroke-dasharray:none;stroke-opacity:0.992157;paint-order:markers stroke fill"
           id="path2145-1"
           inkscape:flatsided="false"
           sodipodi:sides="5"
           sodipodi:cx="2.4143229"
           sodipodi:cy="1.8190104"
           sodipodi:r1="5.9259615"
           sodipodi:r2="2.3703847"
           sodipodi:arg1="0.97195823"
           sodipodi:arg2="1.6002768"
           inkscape:rounded="0"
           inkscape:randomized="0"
           d="M 5.7546874,6.7138019 2.3444529,4.1883651 -1.2086711,6.5084596 0.13934161,2.484731 -3.1651751,-0.17754216 1.0781771,-0.13890638 2.5889975,-4.1043762 3.8635206,-0.05676934 8.1017757,0.15470869 4.6461221,2.6176315 Z"
           inkscape:transform-center-x="0.0089007641"
           inkscape:transform-center-y="-0.056601965"
           transform="matrix(0.87318954,-0.03049248,0.03049248,0.87318954,11.282744,11.942064)" /></g></g></g></svg>
